<mxfile host="app.diagrams.net" agent="Mozilla/5.0 (Windows NT 10.0; Win64; x64) AppleWebKit/537.36 (KHTML, like Gecko) Chrome/141.0.0.0 Safari/537.36" version="28.2.8">
  <diagram name="Page-1" id="jOIOuczRJwzsVeMP5a3i">
    <mxGraphModel dx="1163" dy="620" grid="1" gridSize="10" guides="1" tooltips="1" connect="1" arrows="1" fold="1" page="1" pageScale="1" pageWidth="850" pageHeight="1100" math="0" shadow="0">
      <root>
        <mxCell id="0" />
        <mxCell id="1" parent="0" />
        <mxCell id="7K2HkpzhfCzW2EN1hIh4-1" value="Customer" style="shape=umlActor;verticalLabelPosition=bottom;verticalAlign=top;html=1;outlineConnect=0;" vertex="1" parent="1">
          <mxGeometry x="90" y="80" width="30" height="60" as="geometry" />
        </mxCell>
        <mxCell id="7K2HkpzhfCzW2EN1hIh4-20" style="edgeStyle=orthogonalEdgeStyle;rounded=0;orthogonalLoop=1;jettySize=auto;html=1;exitX=0;exitY=0.3333333333333333;exitDx=0;exitDy=0;exitPerimeter=0;entryX=1;entryY=0.5;entryDx=0;entryDy=0;" edge="1" parent="1" source="7K2HkpzhfCzW2EN1hIh4-2" target="7K2HkpzhfCzW2EN1hIh4-17">
          <mxGeometry relative="1" as="geometry" />
        </mxCell>
        <mxCell id="7K2HkpzhfCzW2EN1hIh4-2" value="Restaurant" style="shape=umlActor;verticalLabelPosition=bottom;verticalAlign=top;html=1;outlineConnect=0;" vertex="1" parent="1">
          <mxGeometry x="790" y="90" width="30" height="60" as="geometry" />
        </mxCell>
        <mxCell id="7K2HkpzhfCzW2EN1hIh4-3" value="" style="rounded=0;whiteSpace=wrap;html=1;" vertex="1" parent="1">
          <mxGeometry x="230" y="30" width="480" height="770" as="geometry" />
        </mxCell>
        <mxCell id="7K2HkpzhfCzW2EN1hIh4-12" style="edgeStyle=orthogonalEdgeStyle;rounded=0;orthogonalLoop=1;jettySize=auto;html=1;exitX=1;exitY=0.5;exitDx=0;exitDy=0;entryX=0;entryY=0;entryDx=0;entryDy=0;" edge="1" parent="1" source="7K2HkpzhfCzW2EN1hIh4-4" target="7K2HkpzhfCzW2EN1hIh4-8">
          <mxGeometry relative="1" as="geometry" />
        </mxCell>
        <mxCell id="7K2HkpzhfCzW2EN1hIh4-4" value="Place Order" style="ellipse;whiteSpace=wrap;html=1;" vertex="1" parent="1">
          <mxGeometry x="280" y="40" width="120" height="80" as="geometry" />
        </mxCell>
        <mxCell id="7K2HkpzhfCzW2EN1hIh4-5" value="Cancel Order" style="ellipse;whiteSpace=wrap;html=1;" vertex="1" parent="1">
          <mxGeometry x="280" y="130" width="120" height="80" as="geometry" />
        </mxCell>
        <mxCell id="7K2HkpzhfCzW2EN1hIh4-6" value="Leave Review" style="ellipse;whiteSpace=wrap;html=1;" vertex="1" parent="1">
          <mxGeometry x="280" y="220" width="120" height="80" as="geometry" />
        </mxCell>
        <mxCell id="7K2HkpzhfCzW2EN1hIh4-8" value="Pay for the order" style="ellipse;whiteSpace=wrap;html=1;" vertex="1" parent="1">
          <mxGeometry x="440" y="90" width="120" height="80" as="geometry" />
        </mxCell>
        <mxCell id="7K2HkpzhfCzW2EN1hIh4-11" value="Actor" style="shape=umlActor;verticalLabelPosition=bottom;verticalAlign=top;html=1;outlineConnect=0;" vertex="1" parent="1">
          <mxGeometry x="440" y="820" width="30" height="60" as="geometry" />
        </mxCell>
        <mxCell id="7K2HkpzhfCzW2EN1hIh4-14" style="edgeStyle=orthogonalEdgeStyle;rounded=0;orthogonalLoop=1;jettySize=auto;html=1;exitX=1;exitY=0.3333333333333333;exitDx=0;exitDy=0;exitPerimeter=0;entryX=0;entryY=0.5;entryDx=0;entryDy=0;" edge="1" parent="1" source="7K2HkpzhfCzW2EN1hIh4-1" target="7K2HkpzhfCzW2EN1hIh4-5">
          <mxGeometry relative="1" as="geometry" />
        </mxCell>
        <mxCell id="7K2HkpzhfCzW2EN1hIh4-13" style="edgeStyle=orthogonalEdgeStyle;rounded=0;orthogonalLoop=1;jettySize=auto;html=1;exitX=1;exitY=0.3333333333333333;exitDx=0;exitDy=0;exitPerimeter=0;" edge="1" parent="1" source="7K2HkpzhfCzW2EN1hIh4-1" target="7K2HkpzhfCzW2EN1hIh4-4">
          <mxGeometry relative="1" as="geometry" />
        </mxCell>
        <mxCell id="7K2HkpzhfCzW2EN1hIh4-15" style="edgeStyle=orthogonalEdgeStyle;rounded=0;orthogonalLoop=1;jettySize=auto;html=1;exitX=1;exitY=0.3333333333333333;exitDx=0;exitDy=0;exitPerimeter=0;entryX=0;entryY=0.5;entryDx=0;entryDy=0;" edge="1" parent="1" source="7K2HkpzhfCzW2EN1hIh4-1" target="7K2HkpzhfCzW2EN1hIh4-6">
          <mxGeometry relative="1" as="geometry" />
        </mxCell>
        <mxCell id="7K2HkpzhfCzW2EN1hIh4-16" value="Track Delivery" style="ellipse;whiteSpace=wrap;html=1;" vertex="1" parent="1">
          <mxGeometry x="280" y="310" width="120" height="80" as="geometry" />
        </mxCell>
        <mxCell id="7K2HkpzhfCzW2EN1hIh4-17" value="Make Food" style="ellipse;whiteSpace=wrap;html=1;" vertex="1" parent="1">
          <mxGeometry x="520" y="200" width="120" height="80" as="geometry" />
        </mxCell>
        <mxCell id="7K2HkpzhfCzW2EN1hIh4-18" value="Keep Food for Driver" style="ellipse;whiteSpace=wrap;html=1;" vertex="1" parent="1">
          <mxGeometry x="520" y="290" width="120" height="80" as="geometry" />
        </mxCell>
        <mxCell id="7K2HkpzhfCzW2EN1hIh4-19" value="Inform if food is ready" style="ellipse;whiteSpace=wrap;html=1;" vertex="1" parent="1">
          <mxGeometry x="520" y="380" width="120" height="80" as="geometry" />
        </mxCell>
        <mxCell id="7K2HkpzhfCzW2EN1hIh4-24" style="edgeStyle=orthogonalEdgeStyle;rounded=0;orthogonalLoop=1;jettySize=auto;html=1;exitX=0;exitY=1;exitDx=0;exitDy=0;exitPerimeter=0;entryX=1;entryY=0.5;entryDx=0;entryDy=0;" edge="1" parent="1" source="7K2HkpzhfCzW2EN1hIh4-2" target="7K2HkpzhfCzW2EN1hIh4-19">
          <mxGeometry relative="1" as="geometry" />
        </mxCell>
        <mxCell id="7K2HkpzhfCzW2EN1hIh4-22" style="edgeStyle=orthogonalEdgeStyle;rounded=0;orthogonalLoop=1;jettySize=auto;html=1;exitX=0;exitY=0.3333333333333333;exitDx=0;exitDy=0;exitPerimeter=0;entryX=1;entryY=0.5;entryDx=0;entryDy=0;" edge="1" parent="1" source="7K2HkpzhfCzW2EN1hIh4-2" target="7K2HkpzhfCzW2EN1hIh4-18">
          <mxGeometry relative="1" as="geometry" />
        </mxCell>
        <mxCell id="7K2HkpzhfCzW2EN1hIh4-25" style="edgeStyle=orthogonalEdgeStyle;rounded=0;orthogonalLoop=1;jettySize=auto;html=1;exitX=0.5;exitY=0.5;exitDx=0;exitDy=0;exitPerimeter=0;" edge="1" parent="1" source="7K2HkpzhfCzW2EN1hIh4-2" target="7K2HkpzhfCzW2EN1hIh4-17">
          <mxGeometry relative="1" as="geometry" />
        </mxCell>
        <mxCell id="7K2HkpzhfCzW2EN1hIh4-26" value="Accept Delivery" style="ellipse;whiteSpace=wrap;html=1;" vertex="1" parent="1">
          <mxGeometry x="320" y="430" width="120" height="80" as="geometry" />
        </mxCell>
        <mxCell id="7K2HkpzhfCzW2EN1hIh4-27" value="Pick Up Order" style="ellipse;whiteSpace=wrap;html=1;" vertex="1" parent="1">
          <mxGeometry x="320" y="520" width="120" height="80" as="geometry" />
        </mxCell>
        <mxCell id="7K2HkpzhfCzW2EN1hIh4-28" value="Drop Order" style="ellipse;whiteSpace=wrap;html=1;" vertex="1" parent="1">
          <mxGeometry x="320" y="610" width="120" height="80" as="geometry" />
        </mxCell>
        <mxCell id="7K2HkpzhfCzW2EN1hIh4-29" style="edgeStyle=orthogonalEdgeStyle;rounded=0;orthogonalLoop=1;jettySize=auto;html=1;exitX=1;exitY=0.3333333333333333;exitDx=0;exitDy=0;exitPerimeter=0;entryX=0;entryY=0.5;entryDx=0;entryDy=0;" edge="1" parent="1" source="7K2HkpzhfCzW2EN1hIh4-1" target="7K2HkpzhfCzW2EN1hIh4-16">
          <mxGeometry relative="1" as="geometry" />
        </mxCell>
        <mxCell id="7K2HkpzhfCzW2EN1hIh4-32" style="edgeStyle=orthogonalEdgeStyle;rounded=0;orthogonalLoop=1;jettySize=auto;html=1;exitX=0;exitY=0.3333333333333333;exitDx=0;exitDy=0;exitPerimeter=0;entryX=0.5;entryY=1;entryDx=0;entryDy=0;" edge="1" parent="1" source="7K2HkpzhfCzW2EN1hIh4-11" target="7K2HkpzhfCzW2EN1hIh4-28">
          <mxGeometry relative="1" as="geometry" />
        </mxCell>
        <mxCell id="7K2HkpzhfCzW2EN1hIh4-33" style="edgeStyle=orthogonalEdgeStyle;rounded=0;orthogonalLoop=1;jettySize=auto;html=1;exitX=1;exitY=0.3333333333333333;exitDx=0;exitDy=0;exitPerimeter=0;entryX=1;entryY=0.5;entryDx=0;entryDy=0;" edge="1" parent="1" source="7K2HkpzhfCzW2EN1hIh4-11" target="7K2HkpzhfCzW2EN1hIh4-27">
          <mxGeometry relative="1" as="geometry" />
        </mxCell>
        <mxCell id="7K2HkpzhfCzW2EN1hIh4-34" style="edgeStyle=orthogonalEdgeStyle;rounded=0;orthogonalLoop=1;jettySize=auto;html=1;exitX=0;exitY=1;exitDx=0;exitDy=0;exitPerimeter=0;entryX=0;entryY=0.5;entryDx=0;entryDy=0;" edge="1" parent="1" source="7K2HkpzhfCzW2EN1hIh4-11" target="7K2HkpzhfCzW2EN1hIh4-26">
          <mxGeometry relative="1" as="geometry" />
        </mxCell>
      </root>
    </mxGraphModel>
  </diagram>
</mxfile>
